<svg xmlns="http://www.w3.org/2000/svg" width="319" height="77" viewBox="0 0 319 77">
    <g fill="none" fill-rule="evenodd">
        <text fill="#524533" font-family="Montserrat-SemiBold, Montserrat" font-size="24" font-weight="500" letter-spacing="14">
            <tspan x="139" y="47">MATCHA</tspan>
        </text>
        <path fill="#99CB33" fill-rule="nonzero" d="M53.224 34.646c-8.015 3.792-10.715 11.613-7.22 20.922.068.186.174.347.304.48a51.02 51.02 0 0 0-1.919 4.17c-1.655-7.769-3.228-17.85-3.327-28.385.055-.013.11-.003.166-.009.274-.031 6.696-.91 6.693-13.352-.002-6.678-2.77-14.446-2.888-14.774L43.703 0l-1.31 3.706c-5.412 15.323-4.755 32.924-2.666 46.92a39.457 39.457 0 0 0-2.25-1.915c-.376-6.174-3.16-10.578-8.204-13.073-4.684-6.144-9.686-9.146-14.89-8.954-8.398.337-13.939 8.989-14.17 9.357l-.002.003a1.453 1.453 0 0 0-.12.24c-.01.029-.017.06-.025.09a1.458 1.458 0 0 0-.044.164c-.008.038-.009.076-.013.114-.004.05-.009.098-.009.148 0 .042.005.083.01.125.004.035.003.07.009.103 0 .008.006.014.008.021.028.15.084.291.16.426.01.019.019.038.031.056a1.349 1.349 0 0 0 .339.365c.033.025.06.053.096.076.093.058.194.096.294.13.01.004.02.011.033.015.137.044.278.07.418.07.019 0 .038-.007.057-.008.012 0 .02.004.033.004a28.101 28.101 0 0 1 1.814-.056c12.38 0 25.213 7.764 30.007 10.987 1.517 1.047 5.217 3.742 6.947 6.24.086.125.192.223.305.31 2.086 11.44 4.833 19.529 5.088 20.267a1.4 1.4 0 0 0 2.65-.912c-.044-.126-1.416-4.172-2.954-10.581a1.38 1.38 0 0 0 .714-.762c.835-2.256 2.574-6.953 6.151-11.874.055.006.108.02.163.02.255 0 .514-.07.746-.216 3.613-2.27 7.884-1.09 7.952-1.068a1.401 1.401 0 0 0 1.737-.947 1.397 1.397 0 0 0-.946-1.738c-.16-.047-2.912-.826-6.19-.189a37.25 37.25 0 0 1 11.03-7.93 1.4 1.4 0 1 0-1.198-2.53c-8.684 4.102-14.078 10.298-17.426 15.72-2.09-7.138.165-12.824 6.347-15.748 5.888-2.783 12.145-3.061 19.546-2.411a30.027 30.027 0 0 0-1.23 2.009c-1.912 3.486-2.77 7.292-3.425 10.586-1.192 6.01-4.33 9.924-15.763 9.418a1.405 1.405 0 0 0-1.46 1.337 1.401 1.401 0 0 0 1.339 1.46c.659.027 1.299.042 1.922.042 9.931 0 15.114-3.662 16.711-11.712.614-3.09 1.413-6.648 3.133-9.785.44-.8.964-1.595 1.522-2.437.28-.426.573-.866.87-1.333l1.215-1.901-2.246-.242c-7.163-.771-15.465-1.282-23.335 2.44zM43.69 8.97c.702 2.714 1.427 6.295 1.429 9.504.003 8.517-3.209 10.218-4.047 10.518.112-6.717.867-13.549 2.618-20.022zM14.496 29.481c3.19-.12 6.391 1.36 9.537 4.415-2.153-.445-4.544-.68-7.189-.68-4.515 0-8.812.663-11.792 1.266 2.113-2.212 5.438-4.84 9.444-5zm2.348 6.533c10.19 0 16.072 3.504 17.532 10.426-4.194-2.792-12.94-7.996-22.688-10.146 1.64-.17 3.387-.28 5.156-.28z"/>
    </g>
</svg>
